# xmcd
#
# Track frame offsets: 
#        150
#        13937
#        27727
#        44445
#        54435
#        76800
#        94707
#        112987
#        126907
#        137670
#
# Disc length: 2031 seconds
#
# Revision: 0
# Processed by: cddbd v1.5.2PL0 Copyright (c) Steve Scherf et al.
# Submitted via: ExactAudioCopy v0.95b4
#
DISCID=8107ed0a
DTITLE=Wayne Metheny - Now Is the Time
DYEAR=2002
DGENRE=Gospel
TTITLE0=Is Your Cup Empty?
TTITLE1=Ten Thousand Years
TTITLE2=We Are All the Same in God's Eyes
TTITLE3=Where the Roses Never Fade
TTITLE4=Abiding With Him
TTITLE5=Now Is the Time
TTITLE6=God Will Make a Disciple of You
TTITLE7=I Don't Go There Anymore
TTITLE8=I Am Free
TTITLE9=Learning to Lean
EXTD=
EXTT0=
EXTT1=
EXTT2=
EXTT3=
EXTT4=
EXTT5=
EXTT6=
EXTT7=
EXTT8=
EXTT9=
PLAYORDER=
